<svg width="14" height="14" viewBox="0 0 14 14" fill="none" xmlns="http://www.w3.org/2000/svg">
<path d="M13.8601 3.75936L13.1588 3.05805C13.0653 2.9644 12.9577 2.91772 12.8359 2.91772C12.7145 2.91772 12.6069 2.9644 12.5135 3.05805L7.00007 8.57115L1.48692 3.0582C1.39342 2.96455 1.28582 2.91787 1.16426 2.91787C1.04265 2.91787 0.93504 2.96455 0.841585 3.0582L0.14033 3.75956C0.0466783 3.85301 0 3.96062 0 4.08223C0 4.20374 0.0468257 4.31134 0.14033 4.4048L6.6774 10.942C6.77086 11.0355 6.87851 11.0822 7.00007 11.0822C7.12163 11.0822 7.22909 11.0355 7.3225 10.942L13.8601 4.4048C13.9536 4.31129 14 4.20369 14 4.08223C14 3.96062 13.9536 3.85301 13.8601 3.75936Z" fill="#112A46"/>
</svg>
