<svg width="100" height="100" viewBox="0 0 100 100" fill="none" xmlns="http://www.w3.org/2000/svg">
<path d="M41.356 27.26V35.554C41.356 36.125 41.661 36.654 42.156 36.939L62.368 48.608C63.434 49.224 63.434 50.763 62.368 51.379L42.156 63.048C41.661 63.334 41.356 63.862 41.356 64.433V72.727C41.356 73.958 42.689 74.728 43.755 74.112L83.131 51.379C84.197 50.763 84.197 49.224 83.131 48.608L43.756 25.875C42.689 25.259 41.356 26.029 41.356 27.26Z" fill="#112A46"/>
<path d="M42.1561 63.048L44.5321 61.676C44.5451 61.719 44.5551 61.766 44.5641 61.812L44.1551 62.048C43.6601 62.334 43.3551 62.862 43.3551 63.433V71.727C43.3551 72.735 44.2491 73.42 45.1581 73.302L43.7541 74.112C42.6881 74.728 41.3551 73.958 41.3551 72.727V64.433C41.3561 63.862 41.6611 63.334 42.1561 63.048Z" fill="#112A46"/>
<path d="M62.3681 48.608L42.1561 36.939C41.6611 36.653 41.3561 36.125 41.3561 35.554V27.26C41.3561 26.145 42.4481 25.42 43.4471 25.748C43.3931 25.908 43.3561 26.076 43.3561 26.26V34.554C43.3561 35.125 43.6611 35.654 44.1561 35.939L64.3681 47.608C64.4461 47.66 65.1131 48.124 65.1681 48.993C65.2251 49.904 64.5591 50.46 64.4951 50.511C63.8561 50.954 63.2181 51.396 62.5791 51.839C62.6111 51.727 62.6491 51.527 62.5601 51.329C62.5491 51.304 62.5361 51.28 62.5231 51.259C63.4181 50.587 63.3751 49.19 62.3681 48.608Z" fill="#112A46"/>
<path d="M41.356 27.26V35.554C41.356 36.125 41.661 36.654 42.156 36.939L62.368 48.608C63.434 49.224 63.434 50.763 62.368 51.379L42.156 63.048C41.661 63.334 41.356 63.862 41.356 64.433V72.727C41.356 73.958 42.689 74.728 43.755 74.112L83.131 51.379C84.197 50.763 84.197 49.224 83.131 48.608L43.756 25.875C42.689 25.259 41.356 26.029 41.356 27.26Z" stroke="#112A46" stroke-miterlimit="10"/>
<path d="M13.9421 27.26V35.554C13.9421 36.125 14.2471 36.654 14.7421 36.939L34.9531 48.608C36.0191 49.224 36.0191 50.763 34.9531 51.379L14.7411 63.048C14.2461 63.334 13.9411 63.862 13.9411 64.433V72.727C13.9411 73.958 15.2741 74.728 16.3401 74.112L55.7171 51.379C56.7831 50.763 56.7831 49.224 55.7171 48.608L16.3421 25.875C15.2751 25.259 13.9421 26.029 13.9421 27.26Z" fill="#112A46"/>
<path d="M14.742 63.048L17.118 61.676C17.131 61.719 17.141 61.766 17.15 61.812L16.741 62.048C16.246 62.334 15.941 62.862 15.941 63.433V71.727C15.941 72.735 16.835 73.42 17.744 73.302L16.34 74.112C15.274 74.728 13.941 73.958 13.941 72.727V64.433C13.942 63.862 14.247 63.334 14.742 63.048Z" fill="#112A46"/>
<path d="M34.953 48.608L14.741 36.939C14.246 36.653 13.941 36.125 13.941 35.554V27.26C13.941 26.145 15.033 25.42 16.032 25.748C15.978 25.908 15.941 26.076 15.941 26.26V34.554C15.941 35.125 16.246 35.654 16.741 35.939L36.953 47.608C37.031 47.66 37.698 48.124 37.753 48.993C37.81 49.904 37.144 50.46 37.08 50.511C36.441 50.954 35.803 51.396 35.164 51.839C35.196 51.727 35.234 51.527 35.145 51.329C35.134 51.304 35.121 51.28 35.108 51.259C36.004 50.587 35.961 49.19 34.953 48.608Z" fill="#112A46"/>
<path d="M13.9421 27.26V35.554C13.9421 36.125 14.2471 36.654 14.7421 36.939L34.9531 48.608C36.0191 49.224 36.0191 50.763 34.9531 51.379L14.7411 63.048C14.2461 63.334 13.9411 63.862 13.9411 64.433V72.727C13.9411 73.958 15.2741 74.728 16.3401 74.112L55.7171 51.379C56.7831 50.763 56.7831 49.224 55.7171 48.608L16.3421 25.875C15.2751 25.259 13.9421 26.029 13.9421 27.26Z" stroke="#112A46" stroke-miterlimit="10"/>
</svg>
