<svg width="14" height="14" viewBox="0 0 14 14" fill="none" xmlns="http://www.w3.org/2000/svg">
<path d="M10.4052 4.38985L7.28317 9.79735C7.15731 10.0153 6.84259 10.0153 6.71673 9.79735L3.59473 4.38985C3.46887 4.17187 3.62623 3.89929 3.87795 3.89929L10.122 3.89929C10.3737 3.89929 10.531 4.17173 10.4052 4.38985Z" fill="#1D3E65"/>
<path d="M7.28315 9.79734L10.4051 4.38984C10.4239 4.35722 10.4345 4.32348 10.4414 4.2896L7.42315 9.51734C7.29729 9.73532 6.98257 9.73532 6.85671 9.51734L3.73471 4.10984C3.70657 4.06098 3.69439 4.0096 3.69257 3.95892C3.56125 4.05076 3.50455 4.23346 3.59471 4.38984L6.71671 9.79734C6.84257 10.0153 7.15729 10.0153 7.28315 9.79734Z" fill="#1D3E65"/>
<path d="M10.4052 4.38985L7.28317 9.79735C7.15731 10.0153 6.84259 10.0153 6.71673 9.79735L3.59473 4.38985C3.46887 4.17187 3.62623 3.89929 3.87795 3.89929L10.122 3.89929C10.3737 3.89929 10.531 4.17173 10.4052 4.38985Z" stroke="#1D3E65" stroke-miterlimit="10"/>
</svg>
