<svg width="20" height="20" viewBox="0 0 20 20" fill="none" xmlns="http://www.w3.org/2000/svg">
<path d="M10 1.25C8.26942 1.25 6.57769 1.76318 5.13876 2.72464C3.69983 3.6861 2.57832 5.05267 1.91606 6.65152C1.25379 8.25037 1.08051 10.0097 1.41813 11.707C1.75575 13.4044 2.58911 14.9635 3.81282 16.1872C5.03653 17.4109 6.59563 18.2443 8.29296 18.5819C9.9903 18.9195 11.7496 18.7462 13.3485 18.0839C14.9473 17.4217 16.3139 16.3002 17.2754 14.8612C18.2368 13.4223 18.75 11.7306 18.75 10C18.75 7.67936 17.8281 5.45376 16.1872 3.81282C14.5462 2.17187 12.3206 1.25 10 1.25ZM13.5344 11.7687C13.7689 12.0033 13.9007 12.3214 13.9007 12.6531C13.9007 12.9848 13.7689 13.3029 13.5344 13.5375C13.2998 13.7721 12.9817 13.9038 12.65 13.9038C12.3183 13.9038 12.0002 13.7721 11.7656 13.5375L10 11.7687L8.23125 13.5375C7.9967 13.7721 7.67858 13.9038 7.34688 13.9038C7.01517 13.9038 6.69706 13.7721 6.4625 13.5375C6.22795 13.3029 6.09618 12.9848 6.09618 12.6531C6.09618 12.3214 6.22795 12.0033 6.4625 11.7687L8.23125 10L6.4625 8.23125C6.22795 7.9967 6.09618 7.67858 6.09618 7.34688C6.09618 7.01517 6.22795 6.69705 6.4625 6.4625C6.69706 6.22795 7.01517 6.09618 7.34688 6.09618C7.67858 6.09618 7.9967 6.22795 8.23125 6.4625L10 8.23125L11.7688 6.4625C12.0033 6.22795 12.3214 6.09618 12.6531 6.09618C12.9848 6.09618 13.303 6.22795 13.5375 6.4625C13.7721 6.69705 13.9038 7.01517 13.9038 7.34688C13.9038 7.67858 13.7721 7.9967 13.5375 8.23125L11.7688 10L13.5344 11.7687Z" fill="#FFFFFF"/>
</svg>
