<svg width="20" height="20" viewBox="0 0 20 20" fill="none" xmlns="http://www.w3.org/2000/svg">
<g clip-path="url(#clip0_114_9)">
<path d="M18.3333 1.11108H12.2778C12.1304 1.11108 11.9891 1.16962 11.8849 1.2738C11.7808 1.37799 11.7222 1.5193 11.7222 1.66664C11.7222 1.81398 11.7808 1.95529 11.8849 2.05948C11.9891 2.16366 12.1304 2.2222 12.2778 2.2222H17.0167L12.1167 7.2222C12.0656 7.27436 12.0253 7.33607 11.9981 7.40381C11.9709 7.47155 11.9573 7.54398 11.958 7.61698C11.9588 7.68997 11.9739 7.7621 12.0026 7.82925C12.0312 7.89639 12.0728 7.95724 12.125 8.00831C12.1772 8.05938 12.2389 8.09967 12.3066 8.12689C12.3744 8.15411 12.4468 8.16772 12.5198 8.16695C12.5928 8.16617 12.6649 8.15103 12.7321 8.12238C12.7992 8.09373 12.86 8.05214 12.9111 7.99997L17.7778 3.03331V7.7222C17.7778 7.86954 17.8363 8.01085 17.9405 8.11503C18.0447 8.21922 18.186 8.27775 18.3333 8.27775C18.4807 8.27775 18.622 8.21922 18.7262 8.11503C18.8304 8.01085 18.8889 7.86954 18.8889 7.7222V1.66664C18.8889 1.5193 18.8304 1.37799 18.7262 1.2738C18.622 1.16962 18.4807 1.11108 18.3333 1.11108Z" fill="white"/>
<path d="M6.41108 5.96109L1.41108 8.83331C1.3263 8.88226 1.25596 8.95274 1.20718 9.03761C1.1584 9.12249 1.13292 9.21875 1.13331 9.31664V15.4278C1.13292 15.5256 1.1584 15.6219 1.20718 15.7068C1.25596 15.7917 1.3263 15.8621 1.41108 15.9111L6.41108 18.7722C6.49554 18.821 6.59134 18.8466 6.68886 18.8466C6.78638 18.8466 6.88218 18.821 6.96664 18.7722L11.9666 15.9111C12.0514 15.8621 12.1218 15.7917 12.1705 15.7068C12.2193 15.6219 12.2448 15.5256 12.2444 15.4278V9.31664C12.2448 9.21875 12.2193 9.12249 12.1705 9.03761C12.1218 8.95274 12.0514 8.88226 11.9666 8.83331L6.96664 5.96109C6.88218 5.91233 6.78638 5.88666 6.68886 5.88666C6.59134 5.88666 6.49554 5.91233 6.41108 5.96109ZM6.11108 17.2666L2.22219 15.0444V10.2444L6.11108 12.4666V17.2666ZM6.66664 11.6666L2.67219 9.3722L6.66664 7.09998L10.6722 9.38887L6.66664 11.6666ZM11.1111 15.05L7.22219 17.2722V12.4666L11.1111 10.2444V15.05Z" fill="white"/>
</g>
<defs>
<clipPath id="clip0_114_9">
<rect width="20" height="20" fill="white"/>
</clipPath>
</defs>
</svg>
