<svg width="20" height="20" viewBox="0 0 20 20" fill="none" xmlns="http://www.w3.org/2000/svg">
<g clip-path="url(#clip0_114_13)">
<path d="M10.1015 19.8125C4.69919 19.832 0.253877 15.3359 0.38669 9.83203C0.51169 4.60156 4.84763 0.277341 10.2383 0.339841C15.5781 0.402341 19.9843 4.84765 19.8476 10.332C19.7187 15.5469 15.4179 19.8437 10.1015 19.8125ZM8.98435 15.1445C8.50778 14.9922 8.02341 14.8789 7.5781 14.6797C6.67185 14.2734 6.09763 13.5703 5.91403 12.582C5.79685 11.9414 5.84372 11.2969 5.92185 10.6562C5.99216 10.0898 6.15622 9.5625 6.58591 9.15234C6.61716 9.12109 6.62106 9.03125 6.60153 8.98437C6.3945 8.41797 6.41794 7.85156 6.58591 7.27734C6.63669 7.10547 6.71872 7.08594 6.86716 7.13281C7.25778 7.2539 7.57419 7.48828 7.84372 7.78515C7.98825 7.9414 8.11716 8.11328 8.25388 8.27734C9.06638 7.75 11.3906 7.75 12.2422 8.26953C12.4062 8.07812 12.5625 7.8789 12.7383 7.69531C13 7.42578 13.3047 7.21875 13.6758 7.11718C13.7968 7.08203 13.8633 7.10937 13.9062 7.23828C14.0976 7.80469 14.1328 8.37109 13.9062 8.9375C13.8633 9.05078 13.8672 9.125 13.957 9.21094C14.2265 9.46875 14.3906 9.79297 14.4765 10.1562C14.6406 10.832 14.6758 11.5234 14.6289 12.2109C14.5781 12.9492 14.3008 13.5977 13.7578 14.1172C13.3008 14.5508 12.7539 14.8086 12.1523 14.9609C11.9336 15.0156 11.7148 15.0547 11.4804 15.1016C11.7812 15.5625 11.8554 16.0625 11.8437 16.5859C11.832 17.1445 11.8398 17.707 11.8398 18.2656C11.8398 18.332 11.8437 18.4023 11.8476 18.4727C15.414 17.8242 19.0156 14.2734 18.6211 9.35547C18.25 4.66406 14.0976 1.0625 9.29294 1.52344C4.80466 1.95312 1.2031 5.95703 1.60935 10.8086C1.99606 15.3984 5.71481 18.1484 8.62497 18.5078C8.62497 18.1758 8.62497 17.8437 8.62497 17.5078C8.46481 17.5312 8.32028 17.5508 8.17966 17.5664C7.13278 17.6836 6.30075 17.2148 5.83591 16.2812C5.582 15.7695 5.31247 15.2578 4.81247 14.9297C4.75778 14.8945 4.72653 14.8281 4.67966 14.7695C4.72263 14.7383 4.74216 14.7227 4.7656 14.7109C4.79685 14.6992 4.8281 14.6953 4.85935 14.6914C5.21091 14.668 5.54294 14.7305 5.80466 14.9766C5.97653 15.1367 6.13278 15.3281 6.26169 15.5273C6.75388 16.2969 7.60153 16.6211 8.46481 16.3633C8.582 16.3281 8.64841 16.2773 8.66013 16.1406C8.68356 15.7734 8.78513 15.4258 8.98435 15.1445Z" fill="white"/>
</g>
<defs>
<clipPath id="clip0_114_13">
<rect width="20" height="20" fill="white"/>
</clipPath>
</defs>
</svg>
