<svg width="20" height="20" viewBox="0 0 20 20" fill="none" xmlns="http://www.w3.org/2000/svg">
<g clip-path="url(#clip0_69_88)">
<path fill-rule="evenodd" clip-rule="evenodd" d="M2.22222 20H17.7778C19.0051 20 20 19.0051 20 17.7778V2.22222C20 0.994923 19.0051 0 17.7778 0H2.22222C0.994923 0 0 0.994923 0 2.22222V17.7778C0 19.0051 0.994923 20 2.22222 20Z" fill="#112A46"/>
<path fill-rule="evenodd" clip-rule="evenodd" d="M9.99962 3.33334C6.31837 3.33334 3.33337 6.32976 3.33337 10.0269C3.33337 12.9835 5.24337 15.4922 7.89296 16.3773C8.22629 16.4388 8.34796 16.2322 8.34796 16.0548C8.34796 15.8959 8.34212 15.475 8.33879 14.9166C6.48421 15.3211 6.09296 14.0193 6.09296 14.0193C5.79004 13.2462 5.35296 13.0404 5.35296 13.0404C4.74754 12.625 5.39879 12.6334 5.39879 12.6334C6.06754 12.6807 6.41962 13.3232 6.41962 13.3232C7.01462 14.346 7.98004 14.0507 8.36004 13.8791C8.42046 13.4466 8.59296 13.1517 8.78337 12.9844C7.30296 12.8154 5.74671 12.2414 5.74671 9.67672C5.74671 8.94592 6.00629 8.34856 6.43296 7.88046C6.36421 7.71105 6.13546 7.03086 6.49796 6.1093C6.49796 6.1093 7.05796 5.92943 8.33129 6.79535C8.86337 6.64684 9.43337 6.5728 10.0005 6.56987C10.5667 6.5728 11.1371 6.64684 11.6696 6.79535C12.9421 5.92943 13.5009 6.1093 13.5009 6.1093C13.8646 7.03086 13.6359 7.71105 13.5671 7.88046C13.9946 8.34856 14.2525 8.94592 14.2525 9.67672C14.2525 12.2477 12.6938 12.8137 11.2088 12.9793C11.448 13.186 11.6613 13.5943 11.6613 14.2188C11.6613 15.1136 11.653 15.8352 11.653 16.0548C11.653 16.2339 11.773 16.4422 12.1113 16.3765C14.7584 15.4897 16.6667 12.9827 16.6667 10.0269C16.6667 6.32976 13.6817 3.33334 9.99962 3.33334Z" fill="white"/>
</g>
<defs>
<clipPath id="clip0_69_88">
<rect width="20" height="20" fill="white"/>
</clipPath>
</defs>
</svg>
