<svg width="20" height="20" viewBox="0 0 20 20" fill="none" xmlns="http://www.w3.org/2000/svg">
<g clip-path="url(#clip0_65_63)">
<path d="M3.5 20L16.5 20C18.433 20 20 18.433 20 16.5L20 3.5C20 1.567 18.433 0 16.5 0L3.5 0C1.567 0 0 1.567 0 3.5L0 16.5C0 18.433 1.567 20 3.5 20Z" fill="#112A46"/>
<path d="M13.75 17.5H6.25C5.25544 17.5 4.30161 17.1049 3.59835 16.4017C2.89509 15.6984 2.5 14.7446 2.5 13.75V6.25C2.5 5.25544 2.89509 4.30161 3.59835 3.59835C4.30161 2.89509 5.25544 2.5 6.25 2.5H13.75C14.7446 2.5 15.6984 2.89509 16.4017 3.59835C17.1049 4.30161 17.5 5.25544 17.5 6.25V13.75C17.5 14.7446 17.1049 15.6984 16.4017 16.4017C15.6984 17.1049 14.7446 17.5 13.75 17.5ZM6.25 4C5.65352 4.00083 5.0817 4.23815 4.65992 4.65992C4.23815 5.0817 4.00083 5.65352 4 6.25V13.75C4.00083 14.3465 4.23815 14.9183 4.65992 15.3401C5.0817 15.7619 5.65352 15.9992 6.25 16H13.75C14.3465 15.9992 14.9183 15.7619 15.3401 15.3401C15.7619 14.9183 15.9992 14.3465 16 13.75V6.25C15.9992 5.65352 15.7619 5.0817 15.3401 4.65992C14.9183 4.23815 14.3465 4.00083 13.75 4H6.25Z" fill="white"/>
<path d="M10 14.25C9.15943 14.25 8.33774 14.0007 7.63883 13.5337C6.93992 13.0668 6.39519 12.403 6.07351 11.6264C5.75184 10.8498 5.66768 9.99529 5.83166 9.17087C5.99565 8.34645 6.40043 7.58917 6.9948 6.9948C7.58917 6.40043 8.34645 5.99565 9.17087 5.83166C9.99529 5.66768 10.8498 5.75184 11.6264 6.07351C12.403 6.39519 13.0668 6.93992 13.5337 7.63883C14.0007 8.33774 14.25 9.15943 14.25 10C14.2492 11.1269 13.8011 12.2074 13.0043 13.0043C12.2074 13.8011 11.1269 14.2492 10 14.25ZM10 7.25C9.4561 7.25 8.92442 7.41129 8.47218 7.71346C8.01995 8.01563 7.66747 8.44513 7.45933 8.94762C7.25119 9.45012 7.19673 10.0031 7.30284 10.5365C7.40895 11.0699 7.67086 11.56 8.05546 11.9445C8.44005 12.3291 8.93006 12.5911 9.4635 12.6972C9.99695 12.8033 10.5499 12.7488 11.0524 12.5407C11.5549 12.3325 11.9844 11.9801 12.2865 11.5278C12.5887 11.0756 12.75 10.5439 12.75 10C12.7492 9.27091 12.4592 8.57192 11.9436 8.05637C11.4281 7.54083 10.7291 7.25083 10 7.25Z" fill="white"/>
<path d="M14.25 6.75C14.6642 6.75 15 6.41421 15 6C15 5.58579 14.6642 5.25 14.25 5.25C13.8358 5.25 13.5 5.58579 13.5 6C13.5 6.41421 13.8358 6.75 14.25 6.75Z" fill="white"/>
</g>
<defs>
<clipPath id="clip0_65_63">
<rect width="20" height="20" fill="white"/>
</clipPath>
</defs>
</svg>
