<svg width="20" height="20" viewBox="0 0 20 20" fill="none" xmlns="http://www.w3.org/2000/svg">
<g clip-path="url(#clip0_69_69)">
<path d="M0.625 1.875V18.125C0.625 18.8125 1.1875 19.375 1.875 19.375H18.125C18.8125 19.375 19.375 18.8125 19.375 18.125V1.875C19.375 1.1875 18.8125 0.625 18.125 0.625H1.875C1.1875 0.625 0.625 1.1875 0.625 1.875ZM5.96875 16.25H3.75V7.625H5.96875V16.25ZM4.875 5.90625C4.25 5.90625 3.75 5.4375 3.75 4.84375C3.75 4.25 4.25 3.78125 4.875 3.78125C5.5 3.78125 6 4.25 6 4.84375C5.96875 5.4375 5.46875 5.90625 4.875 5.90625ZM16.25 16.25H14.0313V11.9375C14.0313 11.0313 14 10.4375 13.9062 10.1562C13.8125 9.875 13.6562 9.6875 13.4687 9.53125C13.25 9.375 13 9.3125 12.7188 9.3125C12.3438 9.3125 12 9.40625 11.7188 9.625C11.4062 9.84375 11.2188 10.125 11.0938 10.4688C10.9687 10.8125 10.9375 11.4688 10.9375 12.4063V16.25H8.25V7.625H10.4688V8.90625C11.2188 7.9375 12.1875 7.4375 13.3438 7.4375C13.8438 7.4375 14.3125 7.53125 14.75 7.71875C15.1563 7.90625 15.5 8.125 15.7187 8.40625C15.9375 8.6875 16.0938 9 16.1563 9.375C16.25 9.71875 16.2812 10.25 16.2812 10.9063V16.25H16.25Z" fill="#112A46"/>
</g>
<defs>
<clipPath id="clip0_69_69">
<rect width="20" height="20" fill="white"/>
</clipPath>
</defs>
</svg>
