<svg width="24" height="24" viewBox="0 0 24 24" fill="none" xmlns="http://www.w3.org/2000/svg">
<g clip-path="url(#clip0_107_7)">
<path d="M17.1293 0C16.1956 0.00825 15.2701 0.141 14.3716 0.402L14.3093 0.42225C13.7461 0.324 13.1723 0.27 12.6023 0.258C11.4226 0.23775 10.4101 0.52275 9.59406 0.99975C8.78931 0.723 7.12131 0.23775 5.36331 0.336C4.14156 0.402 2.80506 0.77325 1.81206 1.82025C0.828059 2.8635 0.305309 4.4805 0.414059 6.684C0.444809 7.28925 0.617309 8.277 0.906059 9.56175C1.19106 10.8435 1.59381 12.3435 2.09781 13.7145C2.60181 15.0817 3.15156 16.3118 4.01181 17.1473C4.44081 17.565 5.03481 17.9213 5.73381 17.8905C6.22281 17.8703 6.66381 17.6557 7.04706 17.3392C7.23381 17.5852 7.43406 17.6903 7.61331 17.7885C7.84431 17.9138 8.06256 17.9992 8.29356 18.0547C8.70756 18.1597 9.41481 18.297 10.2428 18.156C10.5241 18.1088 10.8211 18.0158 11.1181 17.8868C11.1301 18.2145 11.1421 18.5385 11.1533 18.867C11.1961 19.902 11.2246 20.859 11.5321 21.699C11.5831 21.8362 11.7203 22.539 12.2588 23.1638C12.8018 23.7885 13.8556 24.1755 15.0631 23.9175C15.9113 23.7375 16.9928 23.4098 17.7121 22.3868C18.4231 21.3788 18.7433 19.9298 18.8063 17.5778C18.8213 17.4488 18.8416 17.3438 18.8603 17.2418L19.0283 17.2575H19.0486C19.9546 17.2965 20.9393 17.1675 21.7636 16.7842C22.4896 16.4482 23.0408 16.1085 23.4428 15.5032C23.5411 15.354 23.6536 15.171 23.6821 14.8583C23.7128 14.55 23.5328 14.061 23.2358 13.8353C22.6426 13.3823 22.2676 13.554 21.8648 13.6403C21.4711 13.7265 21.0676 13.7722 20.6656 13.7842C21.8213 11.8395 22.6493 9.7695 23.1226 7.94025C23.4038 6.858 23.5606 5.862 23.5718 4.99125C23.5876 4.1205 23.5141 3.351 22.9936 2.6835C21.3608 0.6015 19.0673 0.0225 17.2943 0.00375C17.2396 0.00375 17.1856 0.00375 17.1301 0.00375L17.1293 0ZM17.0821 0.64125C18.7583 0.6255 20.9018 1.09425 22.4408 3.06225C22.7888 3.504 22.8908 4.14825 22.8788 4.9455C22.8668 5.74275 22.7191 6.6915 22.4491 7.73475C21.9301 9.759 20.9408 12.1095 19.5548 14.2238C19.6021 14.259 19.6561 14.2897 19.7108 14.31C19.9996 14.4307 20.6596 14.532 21.9796 14.2628C22.3118 14.1915 22.5548 14.1457 22.8083 14.337C22.9336 14.442 22.9996 14.5988 22.9913 14.763C22.9763 14.8838 22.9336 15.0007 22.8586 15.099C22.6043 15.4807 22.1018 15.8452 21.4568 16.146C20.8868 16.4107 20.0656 16.548 19.3441 16.5563C18.9773 16.56 18.6413 16.5323 18.3548 16.4423L18.3398 16.4393C18.2296 17.4975 17.9768 19.5915 17.8118 20.544C17.6798 21.3128 17.4488 21.927 17.0078 22.3837C16.5661 22.845 15.9451 23.118 15.1051 23.298C14.0663 23.5207 13.3118 23.2823 12.8243 22.872C12.3368 22.4618 12.1133 21.915 11.9806 21.5828C11.8876 21.3525 11.8403 21.0555 11.7938 20.6565C11.7466 20.2582 11.7158 19.7738 11.6918 19.2233C11.6611 18.3833 11.6491 17.5433 11.6611 16.6995C11.2283 17.0985 10.6891 17.3595 10.1101 17.4615C9.41931 17.5785 8.80581 17.4615 8.43906 17.3715C8.25906 17.3243 8.08281 17.2583 7.91931 17.1683C7.74756 17.0783 7.58706 16.977 7.47831 16.773C7.41531 16.656 7.39656 16.5202 7.42356 16.3912C7.45431 16.2585 7.53231 16.1453 7.63881 16.059C7.83756 15.8978 8.10006 15.8092 8.49381 15.7267C9.21306 15.5775 9.46656 15.477 9.61881 15.3547C9.74781 15.2535 9.89706 15.0428 10.1536 14.7338C10.1536 14.7225 10.1536 14.7068 10.1498 14.6948C9.68556 14.6798 9.23181 14.559 8.82156 14.3355C8.67381 14.4915 7.90356 15.3045 6.97056 16.4295C6.57981 16.8975 6.14631 17.1675 5.68581 17.1877C5.22906 17.2065 4.81356 16.977 4.46256 16.6365C3.75981 15.9525 3.19656 14.7765 2.70831 13.4482C2.22006 12.12 1.82556 10.6403 1.54056 9.3825C1.25931 8.12025 1.09131 7.10475 1.06731 6.6165C0.962309 4.5345 1.45056 3.13275 2.28606 2.2455C3.12156 1.35825 4.26681 1.02675 5.38431 0.96075C7.38831 0.8475 9.29406 1.5465 9.67731 1.695C10.4191 1.191 11.3761 0.879 12.5716 0.89775C13.1386 0.906 13.7003 0.9795 14.2516 1.11675L14.2718 1.10475C14.5141 1.023 14.7601 0.94875 15.0098 0.89475C15.6901 0.7335 16.3846 0.65175 17.0798 0.6405L17.0821 0.64125ZM17.2343 1.30875H17.0866C16.5166 1.3155 15.9413 1.383 15.3833 1.50375C16.6291 2.055 17.5703 2.90175 18.2341 3.75375C18.6953 4.3395 19.0741 4.98375 19.3628 5.6715C19.4768 5.93775 19.5511 6.15975 19.5901 6.3315C19.6133 6.41775 19.6253 6.49125 19.6328 6.5655C19.6328 6.6045 19.6366 6.64425 19.6171 6.71025C19.6171 6.714 19.6133 6.72225 19.6133 6.726C19.6456 7.60125 19.4266 8.19375 19.3981 9.03C19.3793 9.636 19.5353 10.347 19.5743 11.124C19.6096 11.8537 19.5203 12.6547 19.0471 13.4437C19.0861 13.491 19.1213 13.5375 19.1603 13.5885C20.4143 11.6115 21.3203 9.42825 21.8011 7.5645C22.0591 6.56025 22.1948 5.6505 22.2068 4.93275C22.2188 4.2135 22.0861 3.69 21.9136 3.47175C20.5696 1.7565 18.7538 1.3185 17.2336 1.308L17.2343 1.30875ZM12.4411 1.566C11.2621 1.56975 10.4138 1.926 9.77031 2.46075C9.10506 3.01575 8.66031 3.7695 8.37156 4.5465C8.02356 5.4645 7.90281 6.35475 7.85556 6.96075L7.87131 6.9525C8.22756 6.75375 8.69556 6.5505 9.19956 6.43725C9.69981 6.3195 10.2428 6.28425 10.7303 6.47625C11.2231 6.663 11.6251 7.11225 11.7736 7.788C12.4778 11.046 11.5553 12.2573 11.2156 13.1708C11.0866 13.503 10.9733 13.839 10.8833 14.1825C10.9261 14.1742 10.9696 14.1623 11.0123 14.1585C11.2546 14.1398 11.4413 14.2177 11.5516 14.2642C11.8958 14.4082 12.1298 14.7052 12.2588 15.045C12.2896 15.135 12.3128 15.228 12.3286 15.33C12.3406 15.369 12.3488 15.4118 12.3488 15.4553C12.3098 16.701 12.3128 17.9475 12.3601 19.1932C12.3841 19.7325 12.4193 20.205 12.4621 20.58C12.5048 20.9513 12.5633 21.2362 12.6031 21.3337C12.7313 21.654 12.9188 22.0718 13.2593 22.3568C13.5953 22.6425 14.0791 22.83 14.9663 22.6425C15.7351 22.4745 16.2083 22.2472 16.5241 21.9195C16.8413 21.5872 17.0281 21.1305 17.1488 20.4315C17.3326 19.3808 17.6956 16.3335 17.7391 15.7635C17.7203 15.3292 17.7818 14.9978 17.9228 14.7435C18.0631 14.4855 18.2821 14.3258 18.4741 14.2395C18.5671 14.1968 18.6571 14.1698 18.7313 14.1458C18.6533 14.037 18.5716 13.9275 18.4891 13.8218C18.2161 13.4895 17.9888 13.119 17.8208 12.7245C17.7428 12.5595 17.6566 12.3953 17.5628 12.2393C17.4308 12.0015 17.2628 11.7 17.0866 11.3603C16.7348 10.6883 16.3523 9.8685 16.1528 9.07125C15.9541 8.274 15.9271 7.4505 16.4348 6.87225C16.8841 6.35625 17.6768 6.1425 18.8596 6.26325C18.8243 6.1575 18.8056 6.0675 18.7463 5.931C18.4771 5.298 18.1253 4.704 17.7031 4.16475C16.6988 2.88 15.0698 1.60575 12.5588 1.563L12.4411 1.566ZM5.80131 1.617C5.67606 1.617 5.54706 1.62075 5.42256 1.629C4.41081 1.68825 3.45756 1.98 2.77356 2.703C2.09031 3.42975 1.64181 4.61325 1.73856 6.57825C1.75881 6.95325 1.91856 7.992 2.19531 9.23025C2.47356 10.4693 2.86731 11.9265 3.34056 13.215C3.81231 14.4998 4.38381 15.621 4.93056 16.152C5.20356 16.4137 5.44131 16.5232 5.65656 16.5157C5.87181 16.5037 6.13356 16.3785 6.45381 15.996C7.03581 15.2932 7.63806 14.613 8.26281 13.9493C7.36356 13.164 6.92256 11.9775 7.09881 10.797C7.20006 10.059 7.21581 9.36675 7.20006 8.82C7.18881 8.289 7.15281 7.938 7.15281 7.71525C7.15281 7.707 7.15281 7.70325 7.15281 7.695V7.69125L7.14906 7.6845C7.14906 6.53175 7.35306 5.39175 7.74306 4.3095C8.02431 3.5625 8.43906 2.8095 9.06306 2.19525C8.45031 1.992 7.35981 1.68825 6.18081 1.629C6.05556 1.62075 5.92581 1.617 5.80131 1.617ZM18.1988 6.89775C17.5201 6.90975 17.1406 7.086 16.9381 7.31175C16.6561 7.6365 16.6291 8.2065 16.8053 8.91C16.9801 9.61275 17.3446 10.398 17.6843 11.0512C17.8523 11.379 18.0166 11.6723 18.1486 11.91C18.2858 12.1523 18.3833 12.3203 18.4418 12.4688C18.4966 12.6015 18.5596 12.7185 18.6218 12.828C18.8836 12.273 18.9308 11.73 18.9031 11.16C18.8678 10.4573 18.7043 9.738 18.7313 9.012C18.7591 8.16 18.9271 7.605 18.9391 6.94875C18.6961 6.918 18.4463 6.89775 18.2003 6.89775H18.1988ZM9.96531 7.01625C9.75831 7.01625 9.55131 7.04325 9.34806 7.0905C8.94531 7.18875 8.55906 7.3365 8.19531 7.53975C8.07456 7.60575 7.95756 7.68075 7.84806 7.767L7.82406 7.78575C7.83231 7.935 7.85931 8.286 7.87131 8.8095C7.88331 9.3795 7.87131 10.1055 7.76256 10.8915C7.52031 12.6023 8.76231 14.0168 10.2196 14.0205C10.3058 13.6688 10.4453 13.3125 10.5863 12.9382C10.9921 11.844 11.7893 11.0475 11.1173 7.9305C11.0086 7.42275 10.7896 7.21575 10.4881 7.09875C10.3201 7.0395 10.1453 7.0125 9.96531 7.017V7.01625ZM17.8831 7.21875H17.9341C17.9963 7.2225 18.0593 7.227 18.1133 7.242C18.1643 7.254 18.2116 7.26975 18.2506 7.29675C18.2896 7.32 18.3166 7.359 18.3248 7.4055V7.41375C18.3248 7.461 18.3128 7.5075 18.2896 7.551C18.2588 7.605 18.2236 7.656 18.1808 7.69875C18.0788 7.812 17.9416 7.887 17.7938 7.9095C17.6491 7.92975 17.5051 7.89075 17.3836 7.80825C17.3363 7.77225 17.2898 7.73325 17.2546 7.6905C17.2193 7.65525 17.1998 7.60875 17.1916 7.5615C17.1886 7.51575 17.1998 7.4685 17.2306 7.43325C17.2666 7.39725 17.3056 7.3665 17.3483 7.34325C17.4451 7.2885 17.5741 7.2495 17.7233 7.22925C17.7773 7.2225 17.8321 7.218 17.8831 7.21425V7.21875ZM10.0621 7.38675C10.1131 7.38675 10.1723 7.3905 10.2271 7.398C10.3831 7.422 10.5158 7.461 10.6208 7.52325C10.6718 7.54725 10.7191 7.58625 10.7536 7.629C10.7926 7.67625 10.8113 7.734 10.8083 7.797C10.7963 7.85475 10.7723 7.91025 10.7333 7.953C10.6906 8.004 10.6441 8.04675 10.5893 8.082C10.4603 8.17575 10.3006 8.21475 10.1401 8.19525C9.97881 8.16825 9.83106 8.09025 9.72231 7.9695C9.67506 7.9185 9.63606 7.86375 9.60456 7.80525C9.56931 7.7505 9.55431 7.68825 9.56181 7.62525C9.57756 7.52025 9.66756 7.461 9.75381 7.43025C9.85206 7.398 9.95706 7.3875 10.0621 7.39125V7.38675ZM19.1213 14.73H19.1176C18.9736 14.7847 18.8528 14.805 18.7508 14.8522C18.6458 14.8912 18.5626 14.9692 18.5131 15.066C18.4463 15.18 18.3961 15.3832 18.4111 15.7297C18.4538 15.762 18.5048 15.7845 18.5603 15.801C18.7283 15.852 19.0171 15.8873 19.3373 15.8828C19.9741 15.8745 20.7593 15.7268 21.1771 15.531C21.5168 15.375 21.8371 15.1643 22.1183 14.9183C20.7241 15.2033 19.9396 15.129 19.4543 14.9302C19.3373 14.8792 19.2233 14.8125 19.1213 14.73ZM11.0903 14.8237H11.0701C11.0161 14.8275 10.9411 14.8478 10.7888 15.012C10.4408 15.402 10.3201 15.648 10.0351 15.8752C9.74631 16.1055 9.37506 16.227 8.62881 16.3793C8.39481 16.4265 8.25756 16.4805 8.16756 16.5233C8.19456 16.5473 8.19456 16.5555 8.23731 16.5743C8.34756 16.6373 8.48706 16.6882 8.60106 16.719C8.92131 16.797 9.44406 16.8907 9.99531 16.797C10.5421 16.7032 11.1121 16.4407 11.6011 15.7582C11.6873 15.6412 11.6941 15.465 11.6243 15.2775C11.5546 15.0945 11.4016 14.9303 11.2966 14.8875C11.2298 14.8553 11.1593 14.8365 11.0896 14.8245L11.0903 14.8237Z" fill="#1D3E65"/>
</g>
<defs>
<clipPath id="clip0_107_7">
<rect width="24" height="24" fill="white"/>
</clipPath>
</defs>
</svg>
