<svg width="32" height="32" viewBox="0 0 32 32" fill="none" xmlns="http://www.w3.org/2000/svg">
<path d="M29.7 16C29.7 14.1 27.5 12.5 24 11.5C24.9 8 24.6 5.3 23 4.3C22.6 4.1 22.2 4 21.7 4C20.2 4 18.2 5.1 16.2 7C14.2 5.1 12.3 4 10.7 4C10.2 4 9.79995 4.1 9.39995 4.3C7.89995 5.3 7.59995 8 8.39995 11.5C4.99995 12.5 2.69995 14.2 2.69995 16C2.69995 17.9 4.89995 19.5 8.39995 20.5C7.59995 24 7.89995 26.8 9.49995 27.7C9.89995 27.9 10.3 28 10.8 28C12.3 28 14.3 26.9 16.3 25C18.3 26.9 20.1999 28 21.7999 28C22.2999 28 22.7 27.9 23.1 27.7C24.7 26.8 25 24 24.2 20.5C27.5 19.5 29.7 17.8 29.7 16ZM21.7 5.3C22 5.3 22.1999 5.3 22.2999 5.5C23.0999 5.9 23.4 7.5 23.1 9.6C23 10.1 22.9 10.7 22.7999 11.2C21.6999 10.9 20.5999 10.8 19.2999 10.6C18.5999 9.6 17.9 8.7 17.1 7.9C18.9 6.2 20.6 5.3 21.7 5.3ZM19.9 18.1C19.5 18.8 19.1 19.5 18.6 20.1C17.8 20.2 17 20.2 16.2 20.2C15.4 20.2 14.6 20.2 13.8 20.1C13.4 19.5 13 18.8 12.5 18.1C12.1 17.4 11.7 16.7 11.4 16C11.7 15.3 12.1 14.6 12.5 13.9C12.9 13.2 13.4 12.5 13.8 11.8C14.6 11.7 15.4 11.7 16.2 11.7C17 11.7 17.8 11.7 18.6 11.8C19 12.4 19.5 13.1 19.9 13.9C20.2999 14.6 20.7 15.3 21 16C20.7 16.7 20.2999 17.4 19.9 18.1ZM21.7 17.5C22 18.2 22.1999 18.9 22.4 19.5C21.6999 19.7 21 19.8 20.2999 19.9C20.5 19.5 20.7999 19.1 21 18.7C21.2999 18.4 21.5 17.9 21.7 17.5ZM16.2 23.2C15.7 22.7 15.2 22.1 14.8 21.5C15.3 21.5 15.8 21.5 16.2 21.5C16.7 21.5 17.2 21.5 17.6 21.5C17.2 22.1 16.7 22.7 16.2 23.2ZM12.1 20C11.4 19.9 10.7 19.8 9.99995 19.6C10.2 18.9 10.5 18.2 10.7 17.6C10.9 18 11.1 18.4 11.4 18.8C11.7 19.2 11.9 19.6 12.1 20ZM10.7 14.5C10.4 13.8 10.2 13.1 9.89995 12.4C10.6 12.2 11.3 12.1 12.1 12C11.8 12.4 11.6 12.8 11.3 13.2C11.2 13.7 11 14.1 10.7 14.5ZM16.2 8.8C16.7 9.3 17.1 9.9 17.6 10.4C17.1 10.4 16.7 10.4 16.2 10.4C15.7 10.4 15.3 10.4 14.8 10.4C15.3 9.9 15.8 9.3 16.2 8.8ZM21 13.2C20.7 12.8 20.5 12.4 20.2 12C21 12.1 21.6999 12.2 22.4 12.4C22.1999 13.1 21.9 13.8 21.6 14.5C21.5 14.1 21.2999 13.7 21 13.2ZM9.39995 9.5C9.09995 7.4 9.39995 5.9 10.2 5.4C10.4 5.3 10.6 5.2 10.8 5.2C11.9 5.2 13.5 6.1 15.3 7.8C14.6 8.6 13.8 9.5 13.1 10.5C11.9 10.6 10.7 10.8 9.59995 11.1C9.49995 10.6 9.39995 10 9.39995 9.5ZM7.19995 18.7C5.29995 17.9 3.99995 16.8 3.99995 16C3.99995 15.1 5.19995 14.1 7.09995 13.3C7.59995 13.1 8.09995 12.9 8.69995 12.8C8.99995 13.9 9.39995 15 9.99995 16.1C9.49995 17.2 9.09995 18.3 8.79995 19.3C8.19995 19.1 7.69995 18.9 7.19995 18.7ZM10.1 26.6C9.29995 26.2 8.99995 24.6 9.29995 22.5C9.39995 22 9.49995 21.4 9.59995 20.8C10.7 21 11.8 21.2 13 21.3C13.7 22.3 14.5 23.2 15.2 24C13.4 25.7 11.8 26.6 10.7 26.6C10.5 26.7 10.3 26.6 10.1 26.6ZM23.1 22.5C23.4 24.6 23.0999 26.1 22.2999 26.6C22.0999 26.7 21.9 26.8 21.7 26.8C20.6 26.8 19 25.9 17.2 24.2C18 23.4 18.7 22.5 19.4 21.5C20.6 21.4 21.7999 21.2 22.7999 21C22.9 21.4 23 21.9 23.1 22.5ZM25.2999 18.7C24.7999 18.9 24.3 19.1 23.7 19.2C23.4 18.2 23 17.1 22.5 16C23 14.9 23.4 13.8 23.7999 12.7C24.2999 12.9 24.9 13 25.4 13.2C27.2999 14 28.5 15 28.5 15.9C28.4 16.8 27.1999 17.9 25.2999 18.7Z" fill="#1D3E65"/>
<path d="M16.3 18.5C17.7 18.5 18.8 17.4 18.8 16C18.8 14.6 17.7 13.5 16.3 13.5C14.9 13.5 13.8 14.6 13.8 16C13.8 17.4 14.9 18.5 16.3 18.5Z" fill="#1D3E65"/>
</svg>
