<svg width="20" height="20" viewBox="0 0 20 20" fill="none" xmlns="http://www.w3.org/2000/svg">
<path d="M16.25 18.2031H3.75C3.49219 18.2031 3.28125 17.9922 3.28125 17.7344C3.28125 17.4766 3.49219 17.2656 3.75 17.2656H16.25C16.5078 17.2656 16.7188 17.4766 16.7188 17.7344C16.7188 17.9922 16.5078 18.2031 16.25 18.2031Z" fill="white"/>
<path d="M7.69921 2.31641L7.6914 2.29297L7.67968 2.26953C7.55078 1.97656 7.26562 1.79297 6.94921 1.79688C6.63281 1.80078 6.35156 1.99609 6.23437 2.29297L3.70703 8.91406H3.68359V8.98047L1.67187 14.25C1.57812 14.4922 1.69921 14.7617 1.9414 14.8555C2.18359 14.9492 2.45312 14.8281 2.54687 14.5859L4.35156 9.85547H9.10156L10.5937 14.5781C10.6562 14.7773 10.8398 14.9062 11.0391 14.9062C11.0859 14.9062 11.1328 14.8984 11.1797 14.8828C11.4258 14.8047 11.5625 14.543 11.4844 14.293L7.69921 2.31641ZM4.71093 8.91406L6.94921 3.05078L8.80468 8.91406H4.71093Z" fill="white"/>
<path d="M18.3516 10.2188C18.3516 9.35156 18.1563 8.63672 17.7695 8.09766C17.2461 7.36719 16.4141 6.99609 15.293 6.99609C14.3906 6.99609 13.5 7.23828 12.8398 7.66016L12.7656 7.70703C12.5469 7.84375 12.4805 8.13281 12.6172 8.35547C12.7539 8.57422 13.043 8.64062 13.2656 8.50391L13.3438 8.45312C13.8555 8.125 14.5664 7.93359 15.293 7.93359C16.582 7.93359 17.2695 8.54297 17.3945 9.78906C15.0742 9.48437 13.7422 9.72656 12.8594 10.5938C12.3555 11.0859 12.1016 11.7148 12.1016 12.4648C12.1016 13.0977 12.3359 13.6914 12.7656 14.1367C13.3672 14.7656 14.1367 14.8984 14.6758 14.8984C15.2422 14.8984 16.6758 14.8438 17.4805 14.8125C17.9805 14.793 18.3672 14.3867 18.3594 13.8906C18.3555 13.5938 18.3516 10.2188 18.3516 10.2188ZM14.6758 13.9648C13.5508 13.9648 13.0391 13.1875 13.0391 12.4688C13.0391 11.9766 13.1953 11.582 13.5195 11.2656C13.8672 10.9219 14.4102 10.6055 15.7109 10.6055C16.1758 10.6055 16.7344 10.6445 17.4141 10.7422C17.4141 10.7422 17.418 13.5742 17.4219 13.8828C16.7695 13.9062 15.2422 13.9648 14.6758 13.9648Z" fill="white"/>
</svg>
