<svg width="40" height="40" viewBox="0 0 40 40" fill="none" xmlns="http://www.w3.org/2000/svg">
<g clip-path="url(#clip0_57_2)">
<path d="M39.1993 18.0615L31.9631 10.8194C31.4452 10.3015 30.7572 10.0163 30.0252 10.0163C29.2946 10.0163 28.607 10.3007 28.0888 10.8176C27.0212 11.8849 27.0207 13.6236 28.0883 14.6932L33.3878 19.9981L28.0886 25.2993C27.5704 25.8177 27.2855 26.5068 27.286 27.2397C27.2865 27.9711 27.5716 28.6584 28.0888 29.1739C28.6065 29.6916 29.2943 29.9765 30.026 29.9765C30.7582 29.9765 31.4462 29.6916 31.9632 29.1739L39.1994 21.9353C40.2669 20.8672 40.2669 19.1293 39.1993 18.0615ZM38.5027 21.2393L31.2665 28.478C30.9352 28.8095 30.4946 28.992 30.026 28.992C29.5574 28.992 29.1168 28.8095 28.7851 28.4775C28.4539 28.1472 28.2716 27.7077 28.2711 27.2392C28.2706 26.7701 28.4533 26.3285 28.7853 25.9964L34.4323 20.3468C34.6246 20.1545 34.6246 19.8427 34.4325 19.6506L28.7856 13.9977C28.1017 13.3123 28.1014 12.1982 28.7848 11.5151C29.1168 11.1841 29.5574 11.0018 30.0253 11.0018C30.4939 11.0018 30.9348 11.1846 31.2665 11.5162L38.5027 18.7584C39.1863 19.4421 39.1863 20.555 38.5027 21.2393Z" fill="#FFF71F"/>
<path d="M12.714 27.24C12.7145 26.5074 12.4298 25.8186 11.9114 25.2996L6.61241 19.9984L11.9124 14.693C12.9793 13.6234 12.9785 11.885 11.9102 10.8169C11.3925 10.3008 10.7051 10.0165 9.97475 10.0165C9.24286 10.0165 8.5545 10.3017 8.03659 10.8196L0.800652 18.061C-0.266928 19.1293 -0.266928 20.8675 0.800914 21.9356L8.03639 29.1735C8.55384 29.6916 9.24214 29.9768 9.97404 29.9768C10.7059 29.9768 11.3938 29.6922 11.91 29.1752C12.4279 28.659 12.7136 27.9717 12.714 27.24ZM11.2138 28.4782C10.8831 28.8095 10.4427 28.9918 9.97404 28.9918C9.50534 28.9918 9.06456 28.8092 8.73306 28.4773L1.49764 21.2393C0.813724 20.5552 0.813724 19.4419 1.49764 18.7577L8.73332 11.516C9.06528 11.1844 9.50613 11.0016 9.97475 11.0016C10.4427 11.0016 10.883 11.1836 11.2142 11.5138C11.8983 12.1977 11.8986 13.3119 11.2152 13.997L5.5677 19.6502C5.37561 19.8422 5.37561 20.1539 5.56796 20.3464L11.2149 25.9956C11.5469 26.3281 11.7297 26.7696 11.7291 27.2388C11.7285 27.7075 11.546 28.1473 11.2138 28.4782Z" fill="#FFF71F"/>
<path d="M26.8582 1.55319C26.5493 1.43816 26.2271 1.37979 25.8997 1.37979C24.7602 1.37979 23.7296 2.09789 23.3348 3.16626L11.5312 34.9237C11.2751 35.6101 11.3019 36.3551 11.6073 37.022C11.9124 37.6881 12.4579 38.1945 13.1421 38.4469C13.4509 38.562 13.773 38.6203 14.0994 38.6203C15.2377 38.6203 16.2697 37.9025 16.6682 36.8336L28.4733 5.0724C28.9968 3.65482 28.2718 2.076 26.8582 1.55319ZM27.5492 4.73005L15.7448 36.4897C15.4895 37.1746 14.8282 37.6349 14.0993 37.6349C13.8907 37.6349 13.6843 37.5974 13.4849 37.5231C13.047 37.3612 12.6983 37.0373 12.503 36.6114C12.3075 36.1846 12.2902 35.7076 12.4547 35.2675L24.2585 3.50855C24.5112 2.82443 25.1707 2.36482 25.8997 2.36482C26.1092 2.36482 26.3156 2.40227 26.5151 2.47665C27.4206 2.81136 27.8846 3.82279 27.5492 4.73005Z" fill="#FFF71F"/>
</g>
<defs>
<clipPath id="clip0_57_2">
<rect width="40" height="40" fill="white"/>
</clipPath>
</defs>
</svg>
